<svg xmlns="http://www.w3.org/2000/svg" xmlns:xlink="http://www.w3.org/1999/xlink"><symbol id="icon_arrow"><path fill-rule="evenodd" clip-rule="evenodd" d="M0 1.4L4.6 6 0 10.6 1.4 12l6-6-6-6L0 1.4z" fill="#2C2E3F" fill-opacity=".5"/></symbol><symbol id="icon_close" viewBox="0 0 24 25"><path d="M23 24.22a.51.51 0 01-.36-.15L12 13.08l-10.64 11a.5.5 0 01-.72-.7l10.66-11L.64 1.35a.5.5 0 01.72-.7L12 11.64 22.64.65a.5.5 0 11.72.7l-10.66 11 10.66 11a.5.5 0 010 .71.52.52 0 01-.36.16z" fill="#141517" opacity=".2"/></symbol><symbol id="icon_mail"><path d="M24.2273 0H1.77273C.768182 0 0 .764706 0 1.76471V18.2353C0 19.2353.768182 20 1.77273 20H24.2273C25.2318 20 26 19.2353 26 18.2353V1.76471C26 .764706 25.2318 0 24.2273 0zm0 17l-4.6682-4.6471c-.3546-.3529-.8864-.3529-1.2409 0-.3546.353-.3546.8824 0 1.2353l4.6682 4.6471H3.01362l4.6682-4.6471c.35454-.3529.35454-.8823 0-1.2353-.35455-.3529-.88635-.3529-1.2409 0L1.77273 17V5.70585L12.4091 13.7059c.1773.1177.3545.1764.5318.1764.1773 0 .3545-.0587.5318-.1764l10.7546-8.00005V17zm0-15.23529V3.4706l-11.2864 8.3529L1.77273 3.4706V1.76471H24.2273z" fill="#0AD9C6"/></symbol><symbol id="icon_open"><path fill-rule="evenodd" clip-rule="evenodd" d="M.75 14h22.5v-1H.75v1zm0-6.25003h22.5v-1H.75v1zM.75.5v1h22.5v-1H.75z" fill="#000"/></symbol><symbol id="icon_play"><path fill-rule="evenodd" clip-rule="evenodd" d="M32.5 65C50.4493 65 65 50.4493 65 32.5S50.4493 0 32.5 0 0 14.5507 0 32.5 14.5507 65 32.5 65z" fill="#0AD9C6"/><path fill-rule="evenodd" clip-rule="evenodd" d="M28.6001 23.3999l13 9.1-13 9.1v-18.2z" fill="#070707"/></symbol><symbol id="icon_tel" viewBox="0 0 22 24"><path d="M14.17 23.65a4.51 4.51 0 01-2.28-.65 10.8 10.8 0 01-2.56-2A31 31 0 012.84 9a11.55 11.55 0 01-.38-2.35 5.91 5.91 0 011.08-4 5.11 5.11 0 012.89-2 2.22 2.22 0 011.75.21 2.36 2.36 0 011.06 1.53c.1.41.21.81.33 1.22a21.52 21.52 0 01.67 3 4 4 0 01-1.05 2.77c-.56.55-.7.69.13 2.33l.11.22a18.27 18.27 0 001.29 2.31 5.39 5.39 0 00.84 1.06s.07 0 .2-.09a3.27 3.27 0 014.12.95c.31.36.62.67.92 1s.66.68 1 1c1.16 1.37 1.2 2.65.12 3.81a5.1 5.1 0 01-3.75 1.68zm-7-21h-.2a3.15 3.15 0 00-1.81 1.22 4 4 0 00-.71 2.68 10.37 10.37 0 00.31 1.95 29 29 0 006.07 11.14 8.52 8.52 0 002.08 1.67 2.9 2.9 0 003.53-.69c.28-.31.41-.45-.18-1.15-.28-.32-.58-.63-.89-.93s-.66-.68-1-1c-.75-.8-1.14-.81-1.73-.51-1.83 1-2.77-.41-3.59-1.62a19.12 19.12 0 01-1.42-2.61l-.1-.2C6.69 11 6.17 9.55 7.76 8a2 2 0 00.49-1.15 17.28 17.28 0 00-.61-2.67c-.12-.43-.24-.85-.34-1.27a1.14 1.14 0 00-.11-.31z" fill="#0ad9c6"/></symbol><symbol id="logo_moon" viewBox="0 0 68 21"><path fill="#0ad9c6" d="M6.73 4.29L3.34 0H0v20.05h3.34V5.78l1.1 1.43 2.15 2.76.14.1.1-.1 2.14-2.76 1.1-1.39v14.23h3.29V0h-3.29L6.73 4.29z"/><path fill="#0ad9c6" d="M8.35 10.07l.1-.1-.15.1h.05zM43.64 3H37v3.5L33.62 9a7 7 0 10-1.53 5.56l4.6-3.38a7 7 0 107-8.16zm-17 10.27A3.23 3.23 0 1129.9 10a3.26 3.26 0 01-3.23 3.27zm17 0A3.22 3.22 0 0142.6 7l.4-.12a3.39 3.39 0 01.64-.06 3.23 3.23 0 110 6.45zM64.26.24v4.72l-1-.95L59.34.24H56v20.04h3.34V5.16l2.1 2.05 2.82 2.67v10.4h3.34V.24h-3.34z"/></symbol></svg>