<svg id="icon_mail" width="26" height="20" fill="none" xmlns="http://www.w3.org/2000/svg" viewBox="0 0 26 20"><path d="M24.2273 0H1.77273C.768182 0 0 .764706 0 1.76471V18.2353C0 19.2353.768182 20 1.77273 20H24.2273C25.2318 20 26 19.2353 26 18.2353V1.76471C26 .764706 25.2318 0 24.2273 0zm0 17l-4.6682-4.6471c-.3546-.3529-.8864-.3529-1.2409 0-.3546.353-.3546.8824 0 1.2353l4.6682 4.6471H3.01362l4.6682-4.6471c.35454-.3529.35454-.8823 0-1.2353-.35455-.3529-.88635-.3529-1.2409 0L1.77273 17V5.70585L12.4091 13.7059c.1773.1177.3545.1764.5318.1764.1773 0 .3545-.0587.5318-.1764l10.7546-8.00005V17zm0-15.23529V3.4706l-11.2864 8.3529L1.77273 3.4706V1.76471H24.2273z" fill="#0AD9C6"/></svg>
