<svg id="icon_tel" xmlns="http://www.w3.org/2000/svg" viewBox="0 0 22 24" fill="#0ad9c6"><path d="M14.17 23.65a4.51 4.51 0 01-2.28-.65 10.8 10.8 0 01-2.56-2A31 31 0 012.84 9a11.55 11.55 0 01-.38-2.35 5.91 5.91 0 011.08-4 5.11 5.11 0 012.89-2 2.22 2.22 0 011.75.21 2.36 2.36 0 011.06 1.53c.1.41.21.81.33 1.22a21.52 21.52 0 01.67 3 4 4 0 01-1.05 2.77c-.56.55-.7.69.13 2.33l.11.22a18.27 18.27 0 001.29 2.31 5.39 5.39 0 00.84 1.06s.07 0 .2-.09a3.27 3.27 0 014.12.95c.31.36.62.67.92 1s.66.68 1 1c1.16 1.37 1.2 2.65.12 3.81a5.1 5.1 0 01-3.75 1.68zm-7-21h-.2a3.15 3.15 0 00-1.81 1.22 4 4 0 00-.71 2.68 10.37 10.37 0 00.31 1.95 29 29 0 006.07 11.14 8.52 8.52 0 002.08 1.67 2.9 2.9 0 003.53-.69c.28-.31.41-.45-.18-1.15-.28-.32-.58-.63-.89-.93s-.66-.68-1-1c-.75-.8-1.14-.81-1.73-.51-1.83 1-2.77-.41-3.59-1.62a19.12 19.12 0 01-1.42-2.61l-.1-.2C6.69 11 6.17 9.55 7.76 8a2 2 0 00.49-1.15 17.28 17.28 0 00-.61-2.67c-.12-.43-.24-.85-.34-1.27a1.14 1.14 0 00-.11-.31z" fill="#0ad9c6"/></svg>
