<svg id="logo_moon" xmlns="http://www.w3.org/2000/svg" viewBox="0 0 68 21"><path fill="#0ad9c6" d="M6.73 4.29L3.34 0H0v20.05h3.34V5.78l1.1 1.43 2.15 2.76.14.1.1-.1 2.14-2.76 1.1-1.39v14.23h3.29V0h-3.29L6.73 4.29z"/><path fill="#0ad9c6" d="M8.35 10.07l.1-.1-.15.1h.05zM43.64 3H37v3.5L33.62 9a7 7 0 10-1.53 5.56l4.6-3.38a7 7 0 107-8.16zm-17 10.27A3.23 3.23 0 1129.9 10a3.26 3.26 0 01-3.23 3.27zm17 0A3.22 3.22 0 0142.6 7l.4-.12a3.39 3.39 0 01.64-.06 3.23 3.23 0 110 6.45zM64.26.24v4.72l-1-.95L59.34.24H56v20.04h3.34V5.16l2.1 2.05 2.82 2.67v10.4h3.34V.24h-3.34z"/></svg>
